<?xml version="1.0" standalone="no"?>
<!DOCTYPE svg PUBLIC "-//W3C//DTD SVG 20010904//EN"
 "http://www.w3.org/TR/2001/REC-SVG-20010904/DTD/svg10.dtd">
<svg version="1.0" xmlns="http://www.w3.org/2000/svg"
 width="878.000000pt" height="878.000000pt" viewBox="0 0 878.000000 878.000000"
 preserveAspectRatio="xMidYMid meet">
<metadata>
Created by potrace 1.14, written by Peter Selinger 2001-2017
</metadata>
<g transform="translate(0.000000,878.000000) scale(0.100000,-0.100000)"
fill="#000000" stroke="none">
<path d="M4110 7585 c-218 -215 -226 -222 -289 -216 -13 1 -135 59 -270 127
-135 69 -258 127 -274 129 -18 2 -36 -4 -52 -18 -13 -12 -72 -116 -131 -232
-151 -294 -146 -286 -175 -308 -32 -23 -123 -24 -233 -1 -12 3 -79 13 -151 24
-71 11 -158 25 -193 31 -53 9 -66 9 -87 -5 -34 -23 -40 -37 -59 -156 -69 -426
-74 -453 -93 -478 -25 -34 -88 -53 -268 -81 -371 -57 -365 -56 -391 -95 -14
-23 -15 -34 -4 -93 15 -87 48 -302 64 -419 20 -149 12 -160 -174 -254 -216
-109 -356 -183 -371 -197 -40 -35 -33 -57 101 -323 70 -141 129 -267 130 -280
6 -66 2 -71 -215 -290 -193 -195 -215 -220 -215 -250 0 -30 21 -54 202 -237
112 -112 210 -218 219 -235 9 -17 15 -44 13 -59 -5 -42 -50 -126 -71 -131 -12
-3 -35 -48 -72 -139 -29 -74 -66 -161 -81 -194 -22 -49 -153 -375 -176 -437
-5 -16 1 -18 48 -18 l54 0 54 139 54 139 26 -14 c14 -8 32 -18 40 -23 8 -5 78
-40 154 -78 136 -67 139 -69 159 -115 21 -48 21 -48 68 -48 26 0 51 -5 54 -11
12 -18 7 -105 -14 -231 -11 -68 -30 -185 -42 -262 l-21 -138 25 -25 c24 -24
110 -45 272 -67 136 -18 330 -57 351 -71 36 -24 50 -65 74 -215 67 -431 64
-419 104 -445 24 -16 32 -16 123 0 54 9 116 19 138 21 22 3 81 12 130 21 201
34 247 34 280 3 13 -12 49 -72 81 -134 31 -61 88 -172 126 -246 76 -149 103
-180 145 -175 16 2 139 60 274 129 135 68 257 126 270 127 63 6 71 0 289 -216
195 -193 220 -215 250 -215 30 0 54 21 235 200 111 111 212 208 224 217 48 33
86 21 356 -116 267 -135 289 -142 327 -103 9 9 65 111 124 227 59 116 117 228
128 249 46 86 79 92 301 56 72 -11 188 -30 258 -41 119 -20 129 -20 153 -4 40
26 36 10 99 410 33 210 32 203 64 235 31 32 37 33 361 85 124 20 235 40 247
45 12 5 29 20 38 34 18 27 19 14 -40 381 -8 50 -17 106 -21 125 -12 77 -8 130
13 158 19 26 249 154 267 148 5 -1 24 -36 41 -77 l32 -74 51 -3 c55 -3 64 6
43 46 -19 36 -61 144 -61 157 0 7 34 30 75 50 143 72 144 64 -17 382 -137 270
-149 305 -115 354 9 12 106 113 217 224 179 181 200 205 200 235 0 30 -22 55
-215 250 -120 121 -215 226 -216 236 0 11 -2 27 -4 38 -2 10 57 138 130 284
140 277 146 294 106 333 -17 17 -130 78 -367 197 -77 39 -148 80 -157 90 -27
30 -35 73 -26 138 20 137 51 335 65 417 25 145 15 155 -186 187 -449 70 -455
71 -484 128 -8 16 -20 66 -26 113 -6 46 -16 107 -21 134 -5 28 -12 66 -15 85
-15 108 -36 228 -44 247 -5 12 -21 29 -35 39 -23 15 -32 15 -118 0 -91 -16
-220 -36 -387 -59 -94 -14 -140 -9 -171 19 -11 10 -54 86 -96 168 -185 368
-192 379 -242 379 -18 0 -125 -48 -278 -126 -137 -69 -260 -127 -274 -128 -63
-6 -71 0 -289 216 -194 192 -220 215 -250 215 -29 0 -56 -23 -250 -215z"/>
<path d="M567 3268 c-7 -307 -15 -358 -68 -402 -26 -22 -40 -26 -95 -26 -36 0
-81 7 -101 15 -19 8 -39 15 -43 15 -8 0 -30 -54 -30 -75 0 -39 196 -71 275
-45 47 15 101 63 125 109 32 64 40 147 40 418 l0 263 -48 0 -49 0 -6 -272z"/>
<path d="M7827 3533 c-24 -23 9 -72 285 -417 l291 -366 44 0 43 0 0 395 0 395
-50 0 -50 0 -2 -302 -3 -303 -240 302 c-234 294 -241 302 -276 303 -20 0 -39
-3 -42 -7z"/>
<path d="M7822 3033 l3 -278 50 0 50 0 3 218 2 218 -45 60 c-26 32 -50 59 -56
59 -6 0 -8 -106 -7 -277z"/>
</g>
</svg>
